<svg fill="none" height="25" viewBox="0 0 25 25" width="25" xmlns="http://www.w3.org/2000/svg"><circle cx="14.25" cy="7.25" fill="#fdd" r="6.25"/><g fill="#000638"><path d="m20.2609 14.1188c.2301 0 .4167.1865.4167.4166 0 .2158-.164.3932-.3741.4146l-.0426.0021-1.5415-.0001-.0019.0178c-.0378.2338-.2126.411-.4607.4322l-.0505.0022c-.1185 0-.2369-.0331-.3704-.0952l-.0428-.021-.0569-.0011c-1.0119-.0174-1.7868.0429-2.3166.176l-.0776.0205c-.7588.2109-1.4333.5002-2.0252.8362-.3738.2124-.8563.3275-1.4556.3545l-.1303.0044-2.51036-.0009-.40894-.008-.14882-.0002-.07607.0021-.06097.004c-.01812.0017-.03422.0037-.04877.006l-.04121.0085.00158.0034.00145.0167-.00171.1005-.00587.1144-.01651.2314c-.00338.0476-.00598.0912-.00778.131l-.00303.1086c-.00044.0654.00229.1173.00821.1588l.00532.0302.13796.0124.18453.014.20238.0127.33683.0167.37653.0138.43215.011h3.4492l.006.8333-.7274.0088-.8969.006-.5093.0003-.6021-.0033-.3738-.0046-.3817-.0071-1.48782-.0001c-.19797-.0001-.37148-.0398-.51564-.1156l-.01058-.0063c-.17723-.0243-.31901-.0521-.42653-.0833l-.03457-.0105c-.77128-.2467-1.94479-.805-2.59328-1.2111l-.08897-.0569c-.46508-.3046-.88999-.3275-1.00087-.1134-.19737.381-.18527.6435-.0027.9842.00728.0136.02812.0311.06092.052l.05798.0338c.01109.006.02288.0122.03534.0187l.08265.0405.09759.0446.11134.0481.19016.0779.14046.0551.22822.0863.3307.1198.3521.122.36389.1207.27489.0876.18195.0562.35535.1052.25431.071c.17541.0474.37354.1205.62319.2271l.31757.1409.8267.3824.13306.0605.24861.1104.22993.098c.11122.0463.21752.0887.32202.1284.30733.1168.58393.2039.83643.2609 1.4413.3257 2.471.3502 3.6643.0061.5443-.157 1.1763-.383 1.8953-.6781l.3381-.1411c.0573-.0243.1152-.0491.1736-.0742l.3565-.1558.3689-.1656.4648-.2144h.0837l.0003-.9282h.8334l-.0003 1.8465 2.6979.0002c.2157 0 .3931.1639.4145.374l.0021.0427c0 .2157-.1639.3931-.374.4145l-.0426.0021h-3.531l-.0003-.8725-.0126.0063c-.4802.221-.9328.4196-1.358.5958l-.3577.1456c-.0585.0233-.1165.0462-.1739.0686l-.3376.1292c-.3862.1443-.745.2662-1.0766.3658l-.1336.0393c-1.3454.388-2.5116.3603-4.0789.0061-.2944-.0666-.60742-.1651-.94881-.2949-.18665-.0709-.37653-.1489-.58516-.2398l-.26036-.1156-1.07887-.4969-.17555-.0769-.15592-.0649c-.04889-.0197-.09479-.0374-.13797-.0534l-.12171-.0425c-.03804-.0125-.07364-.0231-.1071-.0322l-.22999-.0632-.34328-.0981-.22651-.0673-.22371-.0687-.2201-.0699-.21568-.0709-.21045-.0718-.20442-.0725-.19757-.0731c-.03231-.0122-.06431-.0245-.09597-.0367l-.18579-.0736-.17693-.0738c-.02871-.0123-.05701-.0246-.08489-.0369l-.16213-.0737-.15125-.0735c-.36385-.1832-.61813-.3625-.70608-.5266-.30706-.5731-.33249-1.1245-.0027-1.7612.39832-.7689 1.32657-.7397 2.13232-.2417l.06505.0414c.48591.3182 1.43335.785 2.15648 1.058l.06231.0229.00103-.0587.00274-.076.02921-.4489.00209-.055.00063-.0503c0-.4077.20263-.6965.56466-.8104l.07247-.0209c.02383-.0061.04756-.0115.07181-.0162l.07501-.0121.08204-.0082.09293-.0049.10767-.0021.12625.0005.51083.0093 2.41197.0002c.5238-.0124.9188-.0995 1.1842-.2503.6487-.3684 1.3857-.6844 2.2136-.9145.6192-.172 1.4893-.2459 2.6196-.2271l.2745.006.0071.0042.013-.0178c.0906-.1186.2214-.2124.3816-.279l.0615-.0237.0679-.0243z"/><path clip-rule="evenodd" d="m12.4122 3.29587c-.2802-.0305-.5631-.04587-.8477-.04587-4.28025 0-7.75005 3.46979-7.75005 7.75 0 1.7293.56847 3.3734 1.59997 4.7165.14016.1825.40173.2168.58424.0767.18251-.1402.21683-.4018.07667-.5843-.92064-1.1988-1.42754-2.6647-1.42754-4.2089 0-3.81997 3.09669-6.91667 6.91671-6.91667.2545 0 .5072.01373.7575.04098.2288.0249.4344-.14036.4593-.36913.0249-.22876-.1403-.4344-.3691-.45931zm6.9023 7.70413c0-3.26272-2.0349-6.14203-5.0419-7.26358-.2156-.08042-.4555.02918-.536.24479-.0804.21561.0292.45558.2448.536 2.6836 1.00093 4.4998 3.57078 4.4998 6.48279 0 .8732-.1617 1.7234-.4728 2.5187-.0838.2143.0219.456.2363.5398.2143.0839.4559-.0219.5398-.2362.3488-.8917.53-1.8448.53-2.8223z" fill-rule="evenodd"/><path clip-rule="evenodd" d="m11.1475 7.16663c0-.69036.5596-1.25 1.25-1.25.6903 0 1.25.55964 1.25 1.25 0 .69035-.5597 1.25-1.25 1.25-.6904 0-1.25-.55965-1.25-1.25zm1.6666 0c0-.23012-.1865-.41667-.4166-.41667-.2302 0-.4167.18655-.4167.41667 0 .23011.1865.41666.4167.41666.2301 0 .4166-.18655.4166-.41666z" fill-rule="evenodd"/><path clip-rule="evenodd" d="m10.9972 9.15519c.2228-.05775.3566-.28514.2988-.5079-.0577-.22275-.2851-.35652-.5079-.29877-1.34907.34973-2.30763 1.57169-2.30763 2.98488 0 .571.15586 1.1201.44609 1.5982.11942.1967.37569.2593.5724.1399.1967-.1194.25934-.3757.13992-.5724-.21162-.3486-.32508-.7483-.32508-1.1657 0-1.0312.6997-1.9232 1.6834-2.17821zm3.5505 2.95771c.058-.2227-.0755-.4502-.2981-.5083-.2227-.058-.4503.0755-.5083.2981-.2561.9824-1.1474 1.6807-2.1775 1.6807-.4026 0-.7889-.1056-1.1288-.3032-.199-.1157-.45402-.0482-.56968.1508-.11565.1989-.04813.454.15078.5696.4664.2711.997.4161 1.5477.4161 1.4117 0 2.6327-.9566 2.9839-2.3038z" fill-rule="evenodd"/><path d="m10.6165 9.63066 1.743-1.58794.2348 2.45658 1.7311.0002.9884 1.2245v.8547c0 .2301-.1865.4167-.4167.4167-.2157 0-.3931-.164-.4145-.3741l-.0021-.0426-.0002-.5604-.5533-.6857-2.0902.0003-.1485-1.55162-.5106.46542c-.1587.1446-.3989.1436-.5562.0045l-.0324-.0319c-.1446-.1588-.1436-.39894-.0045-.55625z"/><ellipse cx="19.5638" cy="19" rx=".333332" ry=".333333"/></g></svg>