<svg fill="none" height="25" viewBox="0 0 25 25" width="25" xmlns="http://www.w3.org/2000/svg"><circle cx="17.5" cy="7.5" fill="#006adc" r="6.25"/><path clip-rule="evenodd" d="m7.922 5.509c-.532.426-.867 1.051-.867 1.886 0 .859.35 1.851.93 2.625.582.778 1.343 1.27 2.134 1.27s1.551-.492 2.134-1.27c.58-.774.929-1.766.929-2.625 0-.835-.334-1.46-.866-1.886-.542-.434-1.314-.679-2.197-.679-.884 0-1.655.245-2.197.679zm-.514-.649c.719-.576 1.685-.86 2.711-.86s1.992.284 2.71.86c.729.584 1.178 1.448 1.178 2.535 0 1.061-.422 2.224-1.096 3.125-.672.897-1.65 1.599-2.792 1.599-1.143 0-2.12-.702-2.792-1.599-.675-.901-1.096-2.064-1.096-3.125 0-1.087.448-1.951 1.177-2.535zm6.9 4.529c0-.426.356-.784.78-.784h3.133c.405 0 .779.316.779.784v1.848c0 .426-.356.784-.779.784h-.667c-.613.693-1.21.936-1.71.96-.259.012-.472-.037-.624-.09-.076-.027-.136-.056-.181-.079-.022-.012-.04-.022-.054-.031-.007-.004-.013-.008-.018-.011l-.007-.004-.003-.002-.001-.001h-.001s0-.001.231-.344l-.231.343c-.122-.082-.19-.223-.181-.37.01-.147.096-.278.227-.344.015-.008.03-.017.046-.028-.406-.023-.739-.371-.739-.783zm1.74 2.721c.255-.077.599-.277.997-.766.078-.097.195-.153.319-.153h.812v-1.756h-3.043v1.756h.787c.172 0 .327.108.386.271.06.163.013.346-.118.459.003-.003-.002.002-.018.02-.014.018-.032.042-.055.073-.012.017-.031.044-.053.076-.005.006-.009.013-.014.02zm-8.186 1.077c.079.214-.03.453-.244.532l-2.325.862-.007.002c-.882.31-1.462 1.158-1.462 2.096v2.906c0 .229-.184.415-.412.415-.227 0-.412-.186-.412-.415v-2.906c0-1.277.789-2.447 2.011-2.878l2.322-.86c.213-.079.45.031.529.246zm4.602-.115c.111-.14.299-.193.465-.131l2.327.862c1.211.453 2.006 1.591 2.006 2.876v2.906c0 .184-.12.345-.294.398-.175.052-.363-.017-.463-.171l-4.063-6.255c-.097-.15-.088-.346.022-.485zm1.35 1.081 2.624 4.039v-1.513c0-.931-.575-1.763-1.469-2.098 0 0 0 0-.001 0zm-5.688-.033c.177-.151.478-.161.671-.022l.706.507c.122.088.176.218.145.345l-.649 2.618 1.001.594 1.001-.594-.649-2.618c-.031-.127.023-.257.145-.345l.706-.507c.193-.139.494-.129.671.022.178.151.166.386-.028.525l-.51.367.655 2.642c.035.138-.035.281-.179.366l-1.524.904c-.17.101-.406.101-.576 0l-1.524-.904c-.144-.085-.214-.228-.179-.366l.655-2.642-.51-.367c-.194-.139-.206-.374-.028-.525z" fill="#000638" fill-rule="evenodd"/></svg>