<svg fill="none" height="24" viewBox="0 0 24 24" width="24" xmlns="http://www.w3.org/2000/svg"><circle cx="16.8" cy="7.20001" fill="#18a47d" r="6"/><path d="m16.9104 10.24h.8496c.4244 0 .8313.1686 1.1314.4686.3.3001.4686.7071.4686 1.1314v3.2c0 .4244-.1686.8313-.4686 1.1314-.3001.3-.707.4686-1.1314.4686h-.8496c-.195 1.5466-.9478 2.9689-2.117 4s-2.6745 1.6-4.2334 1.6v-1.6c1.273 0 2.4939-.5057 3.3941-1.4059s1.4059-2.1211 1.4059-3.3941v-4.8c0-1.27303-.5057-2.49393-1.4059-3.3941-.9002-.90018-2.1211-1.40589-3.3941-1.40589-1.27303 0-2.49393.50571-3.3941 1.40589-.90018.90017-1.40589 2.12107-1.40589 3.3941v5.6h-2.4c-.42435 0-.83131-.1686-1.13137-.4686-.30006-.3001-.46863-.707-.46863-1.1314v-3.2c0-.4243.16857-.8313.46863-1.1314.30006-.3.70702-.4686 1.13137-.4686h.8496c.19522-1.54648.94806-2.96857 2.11726-3.99945 1.16919-1.03088 2.67438-1.59968 4.23313-1.59968 1.5588 0 3.064.5688 4.2332 1.59968 1.1691 1.03088 1.922 2.45297 2.1172 3.99945zm-13.55039 1.6v3.2h.8v-3.2zm13.59999 0v3.2h.8v-3.2zm-9.79199 4.628.848-1.3568c.76246.4776 1.64429.7303 2.54399.7288.8997.0015 1.7815-.2512 2.544-.7288l.848 1.3568c-1.0166.6369-2.1924.9738-3.392.972-1.19962.0018-2.3754-.3351-3.39199-.972z" fill="#000638"/></svg>