<svg fill="none" height="39" viewBox="0 0 39 39" width="39" xmlns="http://www.w3.org/2000/svg" xmlns:xlink="http://www.w3.org/1999/xlink"><clipPath id="a"><path d="m0 0h39v39h-39z"/></clipPath><g clip-path="url(#a)" fill="#5b12eb"><path d="m20.7973 15.7866c1.3233 1.3211 1.3233 3.4623 0 4.8465-1.3211 1.3232-3.5254 1.3232-4.8454 0-1.3232-1.3211-1.3232-3.5254 0-4.8465 1.3211-1.3232 3.5254-1.3232 4.8454 0z"/><path d="m19.8752.0010708h-16.65276c-.84254 0-1.52664.6840982-1.52664 1.5266392v35.94569c0 .8425.6841 1.5266 1.52664 1.5266h16.65386c9.6256 0 17.4279-7.8034 17.4279-17.43v-4.14c0-9.62657-7.8023-17.43-17.4279-17.43zm-1.5341 30.8326292s-10.00666-4.4065-10.00666-12.6543c0-5.5402 4.46756-10.00984 10.00666-10.00984 5.5392 0 10.0088 4.47074 10.0088 10.00984 0 8.2478-10.0088 12.6543-10.0088 12.6543z"/></g></svg>