<svg fill="none" height="24" viewBox="0 0 24 24" width="24" xmlns="http://www.w3.org/2000/svg" xmlns:xlink="http://www.w3.org/1999/xlink"><clipPath id="a"><path d="m0 0h24v24h-24z"/></clipPath><clipPath id="b"><path d="m0 0h19.2v19.2h-19.2z" transform="translate(0 5.76)"/></clipPath><g clip-path="url(#a)"><path d="m17.5434 13.7579c3.3137 0 6-2.6863 6-5.99998 0-3.31371-2.6863-6-6-6s-6 2.68629-6 6c0 3.31368 2.6863 5.99998 6 5.99998z" fill="#fdd"/><g clip-path="url(#b)"><path d="m5.6 9.76v-2.4c0-.21218.08428-.41566.23431-.56569s.35352-.23431.56569-.23431h6.4c.2122 0 .4157.08428.5657.23431s.2343.35351.2343.56569v2.4h3.2c.2122 0 .4157.08428.5657.23431.15.14999.2343.35349.2343.56569v11.2c0 .2122-.0843.4157-.2343.5657s-.3535.2343-.5657.2343h-14.4c-.21217 0-.41566-.0843-.56569-.2343s-.23431-.3535-.23431-.5657v-11.2c0-.2122.08428-.4157.23431-.56569.15003-.15003.35352-.23431.56569-.23431zm1.6 6.4h-4v4.8h12.8v-4.8h-4v2.4h-4.8zm8.8-4.8h-12.8v3.2h4v-1.6h4.8v1.6h4zm-7.2 3.2v2.4h1.6v-2.4zm-1.6-6.4v1.6h4.8v-1.6z" fill="#000638"/></g></g></svg>