<svg fill="none" height="24" viewBox="0 0 24 24" width="24" xmlns="http://www.w3.org/2000/svg" xmlns:xlink="http://www.w3.org/1999/xlink"><clipPath id="a"><path d="m0 0h19.2v19.2h-19.2z" transform="translate(0 2.88)"/></clipPath><path d="m15.5684 14.7429c3.3081 0 5.9898-2.6863 5.9898-6.00005 0-3.3137-2.6817-5.99999-5.9898-5.99999s-5.98982 2.68629-5.98982 5.99999c0 3.31375 2.68172 6.00005 5.98982 6.00005z" fill="#fdd"/><g clip-path="url(#a)"><path d="m10.496 16.4984-3.35918-1.832c-.43857.4689-1.00801.795-1.63434.9359-.62633.141-1.28058.0903-1.87772-.1455-.59715-.2357-1.10957-.6456-1.47069-1.1764-.36111-.5308-.55422-1.158-.55422-1.8s.19311-1.2691.55422-1.7999c.36112-.5309.87354-.94077 1.47069-1.17653.59714-.23575 1.25139-.28644 1.87772-.14547.62633.14096 1.19577.46706 1.63434.9359l3.35998-1.83199c-.1907-.75514-.0995-1.55393.2565-2.24664.3561-.69271.9526-1.23178 1.6777-1.51616.725-.28439 1.529-.29456 2.261-.02862.7321.26595 1.342.78975 1.7155 1.47323.3734.68347.4848 1.4797.3132 2.23942-.1715.75973-.6143 1.4308-1.2453 1.88746-.631.4566-1.4068.6674-2.1821.5929s-1.4968-.4292-2.0293-.99759l-3.35998 1.83199c.12896.5131.12896 1.0501 0 1.5632l3.35918 1.832c.5325-.5684 1.254-.9231 2.0293-.9976s1.5511.1363 2.1821.593c.631.4566 1.0738 1.1276 1.2453 1.8874.1716.7597.0602 1.5559-.3132 2.2394-.3735.6835-.9834 1.2073-1.7155 1.4732-.732.266-1.536.2558-2.261-.0286-.7251-.2844-1.3216-.8234-1.6777-1.5162-.356-.6927-.4472-1.4915-.2565-2.2466zm-5.69598-2.4184c.42434 0 .83131-.1686 1.13137-.4686.30006-.3001.46863-.707.46863-1.1314 0-.4243-.16857-.8313-.46863-1.1314-.30006-.3-.70703-.4686-1.13137-.4686-.42435 0-.83131.1686-1.13137.4686-.30006.3001-.46863.7071-.46863 1.1314 0 .4244.16857.8313.46863 1.1314.30006.3.70702.4686 1.13137.4686zm8.79998-4.79999c.4244 0 .8313-.16857 1.1314-.46863.3-.30006.4686-.70703.4686-1.13137 0-.42435-.1686-.83132-.4686-1.13137-.3001-.30006-.707-.46863-1.1314-.46863-.4243 0-.8313.16857-1.1314.46863-.3.30005-.4686.70702-.4686 1.13137 0 .42434.1686.83131.4686 1.13137.3001.30006.7071.46863 1.1314.46863zm0 9.59999c.4244 0 .8313-.1686 1.1314-.4686.3-.3001.4686-.707.4686-1.1314 0-.4243-.1686-.8313-.4686-1.1314-.3001-.3-.707-.4686-1.1314-.4686-.4243 0-.8313.1686-1.1314.4686-.3.3001-.4686.7071-.4686 1.1314 0 .4244.1686.8313.4686 1.1314.3001.3.7071.4686 1.1314.4686z" fill="#000638"/></g></svg>