<svg fill="none" height="25" viewBox="0 0 25 25" width="25" xmlns="http://www.w3.org/2000/svg"><circle cx="17.5" cy="7.5" fill="#fdd" r="6.25"/><path d="m15.1668 16.7042v5.7267c0 .0737-.0195.1461-.0566.2098s-.0905.1164-.1546.1528c-.0641.0363-.1368.055-.2105.0541s-.1459-.0213-.2091-.0592l-3.5358-2.1217-3.53587 2.1217c-.0633.0379-.13553.0584-.20932.0592-.07379.0009-.14648-.0179-.21064-.0543-.06417-.0365-.1175-.0893-.15455-.1531s-.05649-.1363-.05632-.2101v-5.725c-1.07821-.8633-1.86168-2.0401-2.24212-3.3679-.38045-1.3278-.33909-2.741.11836-4.04425.45744-1.30326 1.30839-2.43227 2.43524-3.23099 1.12685-.79873 2.47397-1.22773 3.85522-1.22773 1.3812 0 2.7283.429 3.8551 1.22773 1.1269.79872 1.9778 1.92773 2.4353 3.23099.4574 1.30325.4988 2.71645.1183 4.04425-.3804 1.3278-1.1639 2.5046-2.2421 3.3679zm-6.66664.9775v2.5417l2.50004-1.5 2.5 1.5v-2.5417c-.7943.3213-1.6432.486-2.5.485-.8568.001-1.70574-.1637-2.50004-.485zm2.50004-1.1816c1.326 0 2.5978-.5268 3.5355-1.4645s1.4645-2.2095 1.4645-3.5355c0-1.3261-.5268-2.59789-1.4645-3.53557-.9377-.93769-2.2095-1.46447-3.5355-1.46447-1.32612 0-2.59789.52678-3.53557 1.46447-.93768.93768-1.46447 2.20947-1.46447 3.53557 0 1.326.52679 2.5978 1.46447 3.5355s2.20945 1.4645 3.53557 1.4645z" fill="#000"/></svg>